<?xml version="1.0" encoding="UTF-8"?>
<svg width="191px" height="34px" viewBox="0 0 191 34" version="1.1" xmlns="http://www.w3.org/2000/svg" xmlns:xlink="http://www.w3.org/1999/xlink">
    <!-- Generator: Sketch 52.4 (67378) - http://www.bohemiancoding.com/sketch -->
    <title>Group 4</title>
    <desc>Created with Sketch.</desc>
    <g id="Page-1" stroke="none" stroke-width="1" fill="none" fill-rule="evenodd">
        <g id="Desktop-HD" transform="translate(-510.000000, -98.000000)">
            <g id="Group-4" transform="translate(510.000000, 98.000000)">
                <g id="noun_Star_1880187" transform="translate(0.000000, -0.000000)" fill="#000000">
                    <path d="M17.4792899,0 C19.1775148,3.84858117 20.8343195,7.69716234 22.4911243,11.5043609 C26.6745562,11.9181868 30.8579882,12.3320128 35,12.7044561 C31.852071,15.4770899 28.7455621,18.2497236 25.5976331,21.0223573 C26.5088757,25.1192341 27.4201183,29.2161108 28.3313609,33.2716049 C24.7278107,31.1610927 21.0828402,29.0505804 17.4792899,26.9400682 C13.8757396,29.0505804 10.2721893,31.1610927 6.66863905,33.2716049 C7.57988166,29.2161108 8.49112426,25.1192341 9.40236686,21.0223573 C6.25443787,18.2497236 3.10650888,15.4770899 0,12.7044561 C4.14201183,12.3320128 8.32544379,11.9181868 12.4674556,11.5043609 C14.1656805,7.69716234 15.8224852,3.84858117 17.4792899,0 Z" id="Path"></path>
                </g>
                <g id="noun_Star_1880187-Copy-5" transform="translate(78.000000, -0.000000)" fill="#000000">
                    <path d="M17.4792899,0 C19.1775148,3.84858117 20.8343195,7.69716234 22.4911243,11.5043609 C26.6745562,11.9181868 30.8579882,12.3320128 35,12.7044561 C31.852071,15.4770899 28.7455621,18.2497236 25.5976331,21.0223573 C26.5088757,25.1192341 27.4201183,29.2161108 28.3313609,33.2716049 C24.7278107,31.1610927 21.0828402,29.0505804 17.4792899,26.9400682 C13.8757396,29.0505804 10.2721893,31.1610927 6.66863905,33.2716049 C7.57988166,29.2161108 8.49112426,25.1192341 9.40236686,21.0223573 C6.25443787,18.2497236 3.10650888,15.4770899 0,12.7044561 C4.14201183,12.3320128 8.32544379,11.9181868 12.4674556,11.5043609 C14.1656805,7.69716234 15.8224852,3.84858117 17.4792899,0 Z" id="Path"></path>
                </g>
                <g id="noun_Star_1880187-Copy-4" transform="translate(39.000000, -0.000000)" fill="#000000">
                    <path d="M17.4792899,0 C19.1775148,3.84858117 20.8343195,7.69716234 22.4911243,11.5043609 C26.6745562,11.9181868 30.8579882,12.3320128 35,12.7044561 C31.852071,15.4770899 28.7455621,18.2497236 25.5976331,21.0223573 C26.5088757,25.1192341 27.4201183,29.2161108 28.3313609,33.2716049 C24.7278107,31.1610927 21.0828402,29.0505804 17.4792899,26.9400682 C13.8757396,29.0505804 10.2721893,31.1610927 6.66863905,33.2716049 C7.57988166,29.2161108 8.49112426,25.1192341 9.40236686,21.0223573 C6.25443787,18.2497236 3.10650888,15.4770899 0,12.7044561 C4.14201183,12.3320128 8.32544379,11.9181868 12.4674556,11.5043609 C14.1656805,7.69716234 15.8224852,3.84858117 17.4792899,0 Z" id="Path"></path>
                </g>
                <g id="noun_Star_1880187-Copy-6" transform="translate(117.000000, -0.000000)" fill="#000000">
                    <path d="M17.4792899,0 C19.1775148,3.84858117 20.8343195,7.69716234 22.4911243,11.5043609 C26.6745562,11.9181868 30.8579882,12.3320128 35,12.7044561 C31.852071,15.4770899 28.7455621,18.2497236 25.5976331,21.0223573 C26.5088757,25.1192341 27.4201183,29.2161108 28.3313609,33.2716049 C24.7278107,31.1610927 21.0828402,29.0505804 17.4792899,26.9400682 C13.8757396,29.0505804 10.2721893,31.1610927 6.66863905,33.2716049 C7.57988166,29.2161108 8.49112426,25.1192341 9.40236686,21.0223573 C6.25443787,18.2497236 3.10650888,15.4770899 0,12.7044561 C4.14201183,12.3320128 8.32544379,11.9181868 12.4674556,11.5043609 C14.1656805,7.69716234 15.8224852,3.84858117 17.4792899,0 Z" id="Path"></path>
                </g>
                <g id="noun_Star_1880187-Copy" transform="translate(156.000000, -0.000000)" stroke="#000000">
                    <path d="M17.4792899,0 C19.1775148,3.84858117 20.8343195,7.69716234 22.4911243,11.5043609 C26.6745562,11.9181868 30.8579882,12.3320128 35,12.7044561 C31.852071,15.4770899 28.7455621,18.2497236 25.5976331,21.0223573 C26.5088757,25.1192341 27.4201183,29.2161108 28.3313609,33.2716049 C24.7278107,31.1610927 21.0828402,29.0505804 17.4792899,26.9400682 C13.8757396,29.0505804 10.2721893,31.1610927 6.66863905,33.2716049 C7.57988166,29.2161108 8.49112426,25.1192341 9.40236686,21.0223573 C6.25443787,18.2497236 3.10650888,15.4770899 0,12.7044561 C4.14201183,12.3320128 8.32544379,11.9181868 12.4674556,11.5043609 C14.1656805,7.69716234 15.8224852,3.84858117 17.4792899,0 Z" id="Path"></path>
                </g>
            </g>
        </g>
    </g>
</svg>