<?xml version="1.0" encoding="UTF-8"?>
<svg width="90px" height="90px" viewBox="0 0 90 90" version="1.1" xmlns="http://www.w3.org/2000/svg" xmlns:xlink="http://www.w3.org/1999/xlink">
    <!-- Generator: Sketch 52.4 (67378) - http://www.bohemiancoding.com/sketch -->
    <title>Group 2</title>
    <desc>Created with Sketch.</desc>
    <g id="Page-1" stroke="none" stroke-width="1" fill="none" fill-rule="evenodd">
        <g id="Desktop-HD" transform="translate(-102.000000, -526.000000)">
            <g id="Group-2" transform="translate(102.000000, 526.000000)">
                <rect id="Rectangle-Copy-30" fill="#FFEEE1" x="0" y="0" width="90" height="90"></rect>
                <g id="noun_Smile_651675" transform="translate(15.000000, 15.000000)" fill="#000000">
                    <g id="Group">
                        <path d="M30.5,0.209433333 C13.7975222,0.209433333 0.210111111,13.7975222 0.210111111,30.4993222 C0.210111111,47.2018 13.7982,60.7892111 30.5,60.7892111 C47.2018,60.7892111 60.7898889,47.2011222 60.7898889,30.4993222 C60.7898889,13.7975222 47.2024778,0.209433333 30.5,0.209433333 Z M30.5,57.4003222 C15.6668333,57.4003222 3.599,45.3324889 3.599,30.4993222 C3.599,15.6661556 15.6668333,3.59832222 30.5,3.59832222 C45.3331667,3.59832222 57.401,15.6661556 57.401,30.4993222 C57.401,45.3324889 45.3338444,57.4003222 30.5,57.4003222 Z" id="Shape" fill-rule="nonzero"></path>
                        <circle id="Oval" cx="21.35" cy="21.35" r="4.29236667"></circle>
                        <circle id="Oval" cx="39.3111111" cy="21.35" r="4.29236667"></circle>
                        <path d="M49.3464283,31.4183889 C48.4104172,31.4183889 47.6559111,31.3561814 47.6559111,31.4183889 C47.6559111,40.8782922 39.9604222,48.5743 30.5,48.5743 C21.0395778,48.5743 13.3440889,40.8781333 13.3440889,31.4183889 C13.3440889,31.4018672 11.5853176,31.4183889 11.5853176,31.4183889 C11.5853176,31.4183889 9.9552,31.4183889 9.9552,31.4183889 C9.9552,42.7467667 19.1716222,51.9631889 30.5,51.9631889 C41.8283778,51.9631889 51.0448,42.0517099 51.0448,31.4183889 C51.0448,31.4183889 50.2824395,31.4183889 49.3464283,31.4183889 Z" id="Path"></path>
                    </g>
                </g>
            </g>
        </g>
    </g>
</svg>