<?xml version="1.0" encoding="UTF-8"?>
<svg width="30px" height="30px" viewBox="0 0 30 30" version="1.1" xmlns="http://www.w3.org/2000/svg" xmlns:xlink="http://www.w3.org/1999/xlink">
    <!-- Generator: Sketch 52.4 (67378) - http://www.bohemiancoding.com/sketch -->
    <title>noun_Smile_651675</title>
    <desc>Created with Sketch.</desc>
    <g id="Page-1" stroke="none" stroke-width="1" fill="none" fill-rule="evenodd">
        <g id="Desktop-HD" transform="translate(-624.000000, -73.000000)" fill="#000000">
            <g id="noun_Smile_651675" transform="translate(624.000000, 73.000000)">
                <g id="Group">
                    <path d="M15,0.103 C6.78566667,0.103 0.103333333,6.78566667 0.103333333,14.9996667 C0.103333333,23.214 6.786,29.8963333 15,29.8963333 C23.214,29.8963333 29.8966667,23.2136667 29.8966667,14.9996667 C29.8966667,6.78566667 23.2143333,0.103 15,0.103 Z M15,28.2296667 C7.705,28.2296667 1.77,22.2946667 1.77,14.9996667 C1.77,7.70466667 7.705,1.76966667 15,1.76966667 C22.295,1.76966667 28.23,7.70466667 28.23,14.9996667 C28.23,22.2946667 22.2953333,28.2296667 15,28.2296667 Z" id="Shape" fill-rule="nonzero"></path>
                    <circle id="Oval" cx="10.5" cy="10.5" r="2.111"></circle>
                    <circle id="Oval" cx="19.3333333" cy="10.5" r="2.111"></circle>
                    <path d="M24.2687353,15.4516667 C23.8084019,15.4516667 23.4373333,15.4210728 23.4373333,15.4516667 C23.4373333,20.1040781 19.6526667,23.889 15,23.889 C10.3473333,23.889 6.56266667,20.104 6.56266667,15.4516667 C6.56266667,15.4435413 5.69769719,15.4516667 5.69769719,15.4516667 C5.69769719,15.4516667 4.896,15.4516667 4.896,15.4516667 C4.896,21.023 9.42866667,25.5556667 15,25.5556667 C20.5713333,25.5556667 25.104,20.6811688 25.104,15.4516667 C25.104,15.4516667 24.7290686,15.4516667 24.2687353,15.4516667 Z" id="Path"></path>
                </g>
            </g>
        </g>
    </g>
</svg>